<svg width="13" height="17" viewBox="0 0 13 17" fill="none" xmlns="http://www.w3.org/2000/svg">
<path d="M0.870938 0.137939H12.0951C12.3077 0.137939 12.5116 0.222407 12.662 0.372759C12.8123 0.523111 12.8968 0.727033 12.8968 0.939663V16.2871C12.8969 16.3587 12.8778 16.4291 12.8414 16.4909C12.805 16.5527 12.7528 16.6036 12.6901 16.6383C12.6274 16.673 12.5565 16.6903 12.4848 16.6883C12.4132 16.6863 12.3434 16.6651 12.2827 16.627L6.48301 12.9896L0.683334 16.6262C0.622698 16.6643 0.552964 16.6855 0.481382 16.6875C0.4098 16.6895 0.338983 16.6723 0.276295 16.6377C0.213608 16.6031 0.161337 16.5523 0.12492 16.4906C0.0885024 16.429 0.0692672 16.3587 0.0692139 16.2871V0.939663C0.0692139 0.727033 0.153681 0.523111 0.304034 0.372759C0.454386 0.222407 0.658308 0.137939 0.870938 0.137939ZM11.2934 1.74139H1.67266V14.1136L6.48301 11.0983L11.2934 14.1136V1.74139Z" fill="white"/>
</svg>
